<svg width="25" height="25" viewBox="0 0 25 25" fill="none" xmlns="http://www.w3.org/2000/svg">
<path d="M0 25L2.1412 16.3773L15.2778 3.24072L21.7593 9.72221L8.62268 22.8588L0 25ZM3.64584 17.1875L2.25694 22.743L7.8125 21.3542L19.5023 9.66434L15.3357 5.49766L3.64584 17.1875Z" fill="white"/>
<path d="M7.23381 22.338C6.65511 20.081 4.91899 18.3449 2.66205 17.7662L3.06715 16.1459C5.9028 16.8403 8.10187 19.0394 8.79631 21.875L7.23381 22.338Z" fill="white"/>
<path d="M7.06012 19.1551L5.90271 17.9398L17.4189 6.42361L18.5763 7.58102L7.06012 19.1551Z" fill="white"/>
<path d="M1.15735 23.8426L3.70364 23.206C3.47216 22.2801 2.71984 21.5278 1.79392 21.2963L1.15735 23.8426Z" fill="white"/>
<path d="M22.3959 9.08565L15.9144 2.60417L18.5185 0L18.9236 0.0578739C22.0486 0.462966 24.5371 2.95139 24.9422 6.07639L25 6.48149L22.3959 9.08565ZM18.2871 2.60417L22.4537 6.77084L23.2639 5.96066C22.801 3.87732 21.1806 2.25695 19.0973 1.79398L18.2871 2.60417Z" fill="white"/>
</svg>
