<svg width="25" height="25" viewBox="0 0 25 25" fill="none" xmlns="http://www.w3.org/2000/svg">
<path d="M7.69226 7.77664H9.61534V20.3027H7.69226V7.77664Z" fill="white"/>
<path d="M11.5384 7.77664H13.4615V20.3027H11.5384V7.77664Z" fill="white"/>
<path d="M15.3846 7.77664H17.3077V20.3027H15.3846V7.77664Z" fill="white"/>
<path d="M0 3.07932H25V4.64508H0V3.07932Z" fill="white"/>
<path d="M17.2436 3.86221H15.4487V2.29645C15.4487 1.82672 15 1.46138 14.4231 1.46138H10.5769C10 1.46138 9.55129 1.82672 9.55129 2.29645V3.86221H7.75642V2.29645C7.75642 1.04384 9.03847 0 10.5769 0H14.4231C15.9615 0 17.2436 1.04384 17.2436 2.29645V3.86221Z" fill="white"/>
<path d="M18.2693 25H6.73079C5.19233 25 3.84617 23.9562 3.71797 22.7036L1.9231 3.91441L3.84617 3.81003L5.64105 22.5992C5.70515 23.0689 6.21797 23.4342 6.73079 23.4342H18.2693C18.8462 23.4342 19.359 23.0167 19.359 22.5992L21.1539 3.81003L23.0769 3.91441L21.2821 22.7036C21.1539 24.0084 19.8077 25 18.2693 25Z" fill="white"/>
</svg>
